<svg width="160" height="30" viewBox="0 0 160 30" fill="none" xmlns="http://www.w3.org/2000/svg">
<path d="M0 0H29.9501V29.9579H0V0ZM32.446 0H62.3961V29.9579H32.446V0ZM64.892 0H94.8421V29.9579H64.892V0ZM97.338 0H127.288V29.9579H97.338V0ZM129.784 0H159.734V29.9579H129.784V0Z" fill="#00B67A"/>
<path d="M14.975 20.1903L19.53 19.0357L21.433 24.9025L14.975 20.1903ZM25.4576 12.6072H17.4397L14.975 5.05536L12.5104 12.6072H4.49249L10.9817 17.2882L8.51704 24.84L15.0062 20.1591L18.9996 17.2882L25.4576 12.6072ZM47.421 20.1903L51.9759 19.0357L53.879 24.9025L47.421 20.1903ZM57.9036 12.6072H49.8857L47.421 5.05536L44.9564 12.6072H36.9385L43.4277 17.2882L40.963 24.84L47.4522 20.1591L51.4456 17.2882L57.9036 12.6072ZM79.867 20.1903L84.4219 19.0357L86.325 24.9025L79.867 20.1903ZM90.3496 12.6072H82.3317L79.867 5.05536L77.4024 12.6072H69.3845L75.8737 17.2882L73.409 24.84L79.8982 20.1591L83.8916 17.2882L90.3496 12.6072ZM112.313 20.1903L116.868 19.0357L118.771 24.9025L112.313 20.1903ZM122.796 12.6072H114.778L112.313 5.05536L109.848 12.6072H101.83L108.32 17.2882L105.855 24.84L112.344 20.1591L116.338 17.2882L122.796 12.6072ZM144.759 20.1903L149.314 19.0357L151.217 24.9025L144.759 20.1903ZM155.242 12.6072H147.224L144.759 5.05536L142.294 12.6072H134.276L140.766 17.2882L138.301 24.84L144.79 20.1591L148.784 17.2882L155.242 12.6072Z" fill="white"/>
</svg>
