<svg width="224" height="55" viewBox="0 0 224 55" fill="none" xmlns="http://www.w3.org/2000/svg">
<path d="M58.816 19.4908L81.4547 19.4908L81.4547 23.7101L72.541 23.7101L72.541 47.4949L67.6552 47.4949L67.6552 23.7101L58.7787 23.7101L58.816 19.4908ZM80.485 27.22L84.6622 27.22L84.6622 31.1405L84.7368 31.1405C84.886 30.5804 85.147 30.0577 85.52 29.535C85.893 29.0122 86.3405 28.5268 86.9 28.1161C87.4221 27.668 88.0188 27.332 88.6902 27.0706C89.3242 26.8092 89.9955 26.6599 90.6669 26.6599C91.189 26.6599 91.562 26.6972 91.7485 26.6972C91.9349 26.7346 92.1587 26.7719 92.3452 26.7719L92.3452 31.0659C92.0468 30.9912 91.7112 30.9538 91.3755 30.9165C91.0398 30.8792 90.7415 30.8418 90.4058 30.8418C89.6599 30.8418 88.9513 30.9912 88.2799 31.2899C87.6086 31.5886 87.0491 32.0367 86.527 32.5967C86.0421 33.1942 85.6319 33.9036 85.3335 34.7624C85.0352 35.6212 84.886 36.6293 84.886 37.7495L84.886 47.3829L80.4104 47.3829L80.485 27.22ZM112.858 47.4949L108.457 47.4949L108.457 44.6572L108.383 44.6572C107.823 45.7026 107.003 46.4868 105.921 47.1215C104.839 47.7563 103.721 48.055 102.602 48.055C99.9536 48.055 98.0142 47.4202 96.8207 46.076C95.6273 44.7692 95.0305 42.7529 95.0305 40.1018L95.0305 27.22L99.506 27.22L99.506 39.6538C99.506 41.446 99.8417 42.7155 100.55 43.425C101.222 44.1717 102.191 44.5451 103.422 44.5451C104.355 44.5451 105.138 44.3958 105.772 44.0971C106.406 43.7984 106.928 43.425 107.301 42.9396C107.711 42.4542 107.972 41.8567 108.159 41.1846C108.345 40.5126 108.42 39.7658 108.42 38.9817L108.42 27.22L112.895 27.22L112.895 47.4949L112.858 47.4949ZM120.466 40.998C120.616 42.3048 121.101 43.2009 121.958 43.761C122.816 44.2838 123.86 44.5451 125.054 44.5451C125.464 44.5451 125.949 44.5078 126.471 44.4331C126.993 44.3584 127.515 44.2464 127.963 44.0597C128.448 43.873 128.821 43.6117 129.119 43.2383C129.418 42.8649 129.567 42.4168 129.529 41.8568C129.492 41.2967 129.306 40.8113 128.895 40.4379C128.485 40.0645 128 39.8031 127.404 39.5417C126.807 39.3177 126.098 39.131 125.315 38.9817C124.532 38.8323 123.749 38.6456 122.928 38.4589C122.107 38.2722 121.287 38.0482 120.504 37.7868C119.721 37.5255 119.049 37.1894 118.415 36.704C117.818 36.2559 117.296 35.6959 116.961 34.9864C116.588 34.277 116.401 33.4555 116.401 32.41C116.401 31.2899 116.662 30.3937 117.222 29.647C117.744 28.9002 118.452 28.3028 119.273 27.8547C120.094 27.4067 121.026 27.0706 122.033 26.8839C123.04 26.6972 124.01 26.6225 124.905 26.6225C125.949 26.6225 126.956 26.7346 127.888 26.9586C128.821 27.1826 129.716 27.5187 130.462 28.0414C131.245 28.5268 131.879 29.1989 132.364 29.983C132.886 30.7671 133.184 31.7379 133.334 32.8581L128.672 32.8581C128.448 31.7753 127.963 31.0659 127.217 30.6925C126.434 30.3191 125.576 30.1324 124.569 30.1324C124.271 30.1324 123.86 30.1697 123.45 30.2071C123.003 30.2817 122.63 30.3564 122.219 30.5058C121.846 30.6551 121.511 30.8792 121.25 31.1405C120.989 31.4019 120.839 31.7753 120.839 32.2233C120.839 32.7834 121.026 33.1942 121.399 33.5302C121.772 33.8663 122.257 34.1276 122.891 34.389C123.487 34.613 124.196 34.7997 124.979 34.9491C125.763 35.0984 126.583 35.2851 127.404 35.4718C128.224 35.6585 129.007 35.8825 129.79 36.1439C130.574 36.4053 131.282 36.7413 131.879 37.2267C132.476 37.6748 132.998 38.2349 133.371 38.907C133.744 39.5791 133.93 40.4379 133.93 41.4087C133.93 42.6035 133.669 43.6117 133.11 44.4705C132.55 45.2919 131.842 46.0014 130.984 46.5241C130.126 47.0468 129.119 47.4202 128.075 47.6816C126.993 47.9056 125.949 48.055 124.905 48.055C123.637 48.055 122.443 47.9056 121.362 47.6069C120.28 47.3082 119.31 46.8601 118.527 46.3001C117.744 45.7026 117.11 44.9932 116.662 44.0971C116.215 43.2383 115.954 42.1928 115.916 40.9606L120.429 40.9606L120.429 40.998L120.466 40.998ZM135.198 27.22L138.592 27.22L138.592 21.0964L143.068 21.0964L143.068 27.1826L147.096 27.1826L147.096 30.5058L143.068 30.5058L143.068 41.334C143.068 41.8194 143.105 42.1928 143.143 42.5662C143.18 42.9022 143.292 43.2009 143.404 43.425C143.553 43.649 143.777 43.8357 144.038 43.9477C144.336 44.0597 144.709 44.1344 145.231 44.1344C145.529 44.1344 145.865 44.1344 146.163 44.0971C146.462 44.0597 146.798 44.0224 147.096 43.9477L147.096 47.4202C146.611 47.4949 146.126 47.5322 145.641 47.5696C145.156 47.6443 144.709 47.6443 144.187 47.6443C142.993 47.6443 142.061 47.5322 141.352 47.3082C140.644 47.0842 140.084 46.7481 139.674 46.3374C139.264 45.8893 139.003 45.3666 138.853 44.7318C138.704 44.0971 138.63 43.313 138.592 42.4915L138.592 30.5431L135.198 30.5431L135.198 27.1453L135.198 27.22ZM150.229 27.22L154.443 27.22L154.443 29.983L154.518 29.983C155.152 28.7882 156.01 27.9667 157.129 27.444C158.247 26.9212 159.441 26.6599 160.784 26.6599C162.387 26.6599 163.767 26.9212 164.961 27.5187C166.154 28.0787 167.124 28.8255 167.907 29.8337C168.69 30.8045 169.287 31.962 169.66 33.2688C170.033 34.5757 170.257 35.9946 170.257 37.4508C170.257 38.8323 170.07 40.1392 169.735 41.4087C169.362 42.6782 168.84 43.8357 168.131 44.8065C167.422 45.7773 166.527 46.5614 165.408 47.1588C164.289 47.7563 163.021 48.055 161.529 48.055C160.895 48.055 160.224 47.9803 159.59 47.8683C158.956 47.7563 158.322 47.5696 157.725 47.3082C157.129 47.0468 156.569 46.7108 156.084 46.3001C155.562 45.8893 155.152 45.4039 154.816 44.8812L154.742 44.8812L154.742 55L150.266 55L150.266 27.22L150.229 27.22ZM165.856 37.3761C165.856 36.48 165.744 35.5838 165.483 34.725C165.259 33.8663 164.886 33.1195 164.401 32.4474C163.916 31.7753 163.32 31.2525 162.648 30.8418C161.94 30.4311 161.119 30.2444 160.224 30.2444C158.359 30.2444 156.942 30.8792 155.972 32.186C155.04 33.4929 154.555 35.2478 154.555 37.4134C154.555 38.4589 154.667 39.3924 154.928 40.2512C155.189 41.11 155.525 41.8567 156.047 42.4915C156.532 43.1263 157.129 43.6117 157.837 43.985C158.546 44.3584 159.329 44.5451 160.261 44.5451C161.306 44.5451 162.126 44.3211 162.835 43.9104C163.543 43.4997 164.103 42.9396 164.588 42.3048C165.035 41.6327 165.371 40.8859 165.557 40.0272C165.744 39.131 165.856 38.2722 165.856 37.3761V37.3761ZM173.725 19.4908L178.201 19.4908L178.201 23.7101L173.725 23.7101L173.725 19.4908ZM173.725 27.22L178.201 27.2199L178.201 47.4949L173.725 47.4949L173.725 27.22ZM182.192 19.4908L186.667 19.4908L186.667 47.4949L182.192 47.4949L182.192 19.4908ZM200.317 48.055C198.714 48.055 197.259 47.7936 195.991 47.2335C194.723 46.6734 193.679 45.964 192.784 45.0305C191.926 44.0971 191.254 42.9396 190.807 41.6327C190.359 40.3259 190.098 38.8696 190.098 37.3388C190.098 35.8079 190.322 34.389 190.807 33.0821C191.254 31.7753 191.926 30.6551 192.784 29.6843C193.641 28.7508 194.723 28.0041 195.991 27.4813C197.259 26.9586 198.714 26.6599 200.317 26.6599C201.921 26.6599 203.376 26.9212 204.644 27.4813C205.912 28.0041 206.956 28.7508 207.851 29.6843C208.709 30.6178 209.38 31.7753 209.828 33.0821C210.276 34.389 210.537 35.8079 210.537 37.3388C210.537 38.907 210.313 40.3259 209.828 41.6327C209.343 42.9396 208.709 44.0597 207.851 45.0305C206.993 45.964 205.912 46.7108 204.644 47.2335C203.376 47.7563 201.958 48.055 200.317 48.055ZM200.317 44.5078C201.287 44.5078 202.182 44.2838 202.891 43.873C203.637 43.4623 204.196 42.9022 204.681 42.2301C205.166 41.558 205.502 40.7739 205.725 39.9525C205.949 39.0937 206.061 38.2349 206.061 37.3388C206.061 36.48 205.949 35.6212 205.725 34.7624C205.502 33.9036 205.166 33.1568 204.681 32.4847C204.196 31.8126 203.6 31.2899 202.891 30.8792C202.145 30.4684 201.287 30.2444 200.317 30.2444C199.348 30.2444 198.453 30.4684 197.744 30.8792C196.998 31.2899 196.439 31.85 195.954 32.4847C195.469 33.1568 195.133 33.9036 194.91 34.7624C194.686 35.6212 194.574 36.48 194.574 37.3388C194.574 38.2349 194.686 39.0937 194.91 39.9525C195.133 40.8113 195.469 41.558 195.954 42.2301C196.439 42.9022 197.035 43.4623 197.744 43.873C198.49 44.3211 199.348 44.5078 200.317 44.5078ZM211.879 27.2199L215.273 27.2199L215.273 21.0964L219.749 21.0964L219.749 27.1826L223.777 27.1826L223.777 30.5058L219.749 30.5058L219.749 41.334C219.749 41.8194 219.786 42.1928 219.823 42.5662C219.861 42.9022 219.973 43.2009 220.084 43.425C220.234 43.649 220.457 43.8357 220.718 43.9477C221.017 44.0597 221.39 44.1344 221.912 44.1344C222.21 44.1344 222.546 44.1344 222.844 44.0971C223.143 44.0597 223.478 44.0224 223.777 43.9477L223.777 47.4202C223.292 47.4949 222.807 47.5322 222.322 47.5696C221.837 47.6442 221.39 47.6442 220.868 47.6442C219.674 47.6442 218.742 47.5322 218.033 47.3082C217.324 47.0842 216.765 46.7481 216.355 46.3374C215.945 45.8893 215.683 45.3666 215.534 44.7318C215.385 44.0971 215.311 43.3129 215.273 42.4915L215.273 30.5431L211.879 30.5431L211.879 27.1453L211.879 27.2199Z" fill="white"/>
<path d="M53.5945 19.4908L33.1189 19.4908L26.8159 -2.34432e-06L20.4756 19.4908L1.70068e-06 19.4535L16.5595 31.5139L10.2191 51.0048L26.7786 38.9443L43.3381 51.0048L37.035 31.5139L53.5945 19.4908Z" fill="#00B67A"/>
<path d="M38.3507 35.8346L36.9334 31.4286L26.7144 38.859L38.3507 35.8346Z" fill="#005128"/>
</svg>
