<svg id="Capa_1" enable-background="new 0 0 32 32" height="512" viewBox="0 0 32 32" width="512" xmlns="http://www.w3.org/2000/svg"><path d="m21.817 15.475c1.349-1.433 2.183-3.356 2.183-5.475 0-4.411-3.589-8-8-8s-8 3.589-8 8c0 2.119.834 4.042 2.183 5.475-3.998 2.231-6.183 6.957-6.183 13.525 0 .553.448 1 1 1h22c.553 0 1-.447 1-1 0-6.569-2.185-11.294-6.183-13.525zm-5.817-11.475c3.309 0 6 2.691 6 6s-2.691 6-6 6-6-2.691-6-6 2.691-6 6-6zm-9.982 24c.157-4.234 1.388-9.193 5.883-11.143 1.2.721 2.6 1.143 4.099 1.143s2.899-.422 4.099-1.143c4.494 1.949 5.726 6.909 5.882 11.143z"/></svg>